<?xml version="1.0" standalone="no"?>
<!DOCTYPE svg PUBLIC "-//W3C//DTD SVG 20010904//EN"
 "http://www.w3.org/TR/2001/REC-SVG-20010904/DTD/svg10.dtd">
<svg version="1.0" xmlns="http://www.w3.org/2000/svg"
 width="1000.000000pt" height="1000.000000pt" viewBox="0 0 1000.000000 1000.000000"
 preserveAspectRatio="xMidYMid meet">
<metadata>
Created by potrace 1.14, written by Peter Selinger 2001-2017
</metadata>
<g transform="translate(0.000000,1000.000000) scale(0.100000,-0.100000)"
fill="#000000" stroke="none">
<path d="M3884 9525 c-196 -45 -420 -247 -541 -490 -31 -61 -86 -205 -78 -205
2 0 -1 -15 -6 -32 -30 -106 -33 -439 -5 -568 6 -25 33 -157 40 -195 2 -11 11
-47 19 -80 9 -33 18 -71 21 -85 3 -14 10 -45 17 -70 6 -25 12 -52 14 -60 2 -8
35 -139 74 -290 38 -151 68 -277 65 -280 -3 -2 -51 45 -107 105 -174 187 -406
417 -542 536 -71 63 -135 118 -141 124 -104 94 -443 309 -639 405 -263 129
-508 204 -707 217 -368 23 -567 -4 -763 -104 -287 -146 -492 -376 -550 -618
-20 -82 -28 -322 -13 -387 57 -253 160 -490 286 -658 207 -278 654 -600 1078
-779 233 -98 518 -186 732 -226 157 -29 269 -46 372 -54 149 -13 580 -3 640
14 8 2 35 7 60 10 226 32 514 141 673 256 199 144 564 501 730 715 129 165
284 429 348 594 16 41 33 84 38 95 36 83 99 310 117 419 3 21 7 46 9 55 3 15
9 81 20 216 13 143 6 271 -19 380 -70 302 -174 557 -284 695 -56 70 -166 174
-229 216 -99 66 -224 108 -386 129 -85 12 -292 11 -343 0z"/>
<path d="M7875 8279 c-143 -44 -290 -156 -467 -356 -103 -115 -206 -318 -278
-548 -41 -132 -51 -153 -68 -149 -10 2 -66 14 -127 28 -187 43 -255 50 -445
49 -721 -3 -1146 -134 -1605 -495 -5 -5 -28 -22 -50 -39 -95 -73 -124 -98
-201 -174 -95 -94 -181 -203 -233 -295 -121 -218 -196 -454 -218 -690 -13
-138 -6 -525 11 -620 3 -14 14 -77 25 -142 60 -349 213 -742 394 -1013 89
-133 333 -398 462 -500 27 -22 58 -48 69 -57 38 -34 313 -228 324 -228 6 0 12
-4 14 -8 3 -7 244 -146 258 -148 3 0 48 -21 101 -46 131 -62 326 -134 419
-153 8 -2 41 -10 73 -19 32 -8 77 -18 100 -21 23 -4 44 -8 48 -11 4 -2 31 -6
60 -10 30 -3 76 -10 104 -14 67 -10 409 -10 465 0 25 4 65 11 90 14 295 40
572 164 877 393 124 93 312 280 403 402 14 18 34 45 46 59 96 126 245 419 292
577 57 194 79 307 109 550 12 101 5 528 -11 670 -23 199 -121 471 -226 625
-34 50 -225 299 -303 395 -202 249 -396 429 -572 530 -89 51 -276 145 -290
145 -11 0 -54 -80 -78 -146 -31 -87 -68 -166 -74 -160 -7 7 33 155 78 291 45
136 84 213 192 379 92 140 138 192 241 268 l79 59 81 -3 c73 -2 86 0 128 25
150 88 200 303 101 436 -56 75 -116 114 -223 144 -88 25 -112 26 -175 6z"/>
<path d="M9615 7402 c-44 -5 -201 -47 -270 -72 -33 -12 -69 -24 -80 -28 -42
-12 -264 -127 -340 -177 -223 -145 -618 -492 -644 -565 -8 -25 -5 -36 30 -85
45 -65 44 -63 105 -135 63 -74 86 -88 116 -71 34 18 80 62 113 107 61 83 213
208 336 273 75 41 196 87 254 97 17 3 48 9 70 14 22 5 56 11 75 15 89 14 140
27 146 37 4 5 -19 36 -50 67 -68 69 -73 87 -8 33 147 -122 274 -153 403 -99
87 36 141 173 117 297 -5 25 -11 56 -14 69 -15 72 -97 168 -173 203 -42 19
-118 27 -186 20z"/>
<path d="M3795 5796 c-16 -7 -54 -42 -83 -77 -50 -59 -86 -111 -237 -344 -93
-144 -172 -298 -303 -595 -70 -157 -156 -414 -256 -760 -20 -72 -24 -103 -22
-200 3 -99 8 -128 35 -210 35 -105 97 -225 174 -340 28 -41 53 -77 56 -80 3
-3 42 -50 86 -105 81 -101 184 -214 286 -312 215 -206 684 -500 1039 -652 65
-27 281 -101 318 -107 14 -3 29 -7 33 -9 4 -3 40 -12 80 -21 41 -8 83 -17 94
-20 210 -45 507 -62 685 -40 283 36 618 140 775 240 111 72 84 150 -68 196
-23 7 -51 16 -62 21 -11 4 -65 20 -120 34 -302 79 -588 176 -742 253 -93 46
-287 162 -448 267 -143 92 -257 188 -389 324 -82 84 -73 75 -151 166 -204 238
-393 548 -503 826 -58 144 -78 224 -108 429 -3 19 -7 46 -10 60 -2 14 -6 43
-9 65 -3 22 -7 50 -9 62 -24 122 -24 381 -1 786 3 37 0 78 -5 92 -18 47 -86
73 -135 51z"/>
<path d="M2863 2940 c-35 -14 -44 -61 -43 -230 1 -69 3 -150 5 -180 2 -30 6
-109 10 -175 4 -66 8 -140 10 -165 1 -25 6 -85 9 -135 9 -126 23 -277 31 -340
2 -16 7 -55 10 -85 7 -76 15 -140 20 -175 3 -16 7 -46 9 -65 22 -157 31 -217
57 -375 53 -317 94 -449 162 -519 45 -46 80 -59 142 -51 51 6 85 27 170 106
22 21 54 50 70 65 17 15 62 56 101 93 122 115 166 154 274 246 58 50 110 95
116 100 6 6 28 24 49 40 21 17 64 50 95 75 104 82 335 242 380 263 8 4 42 23
75 42 33 19 97 53 142 76 121 63 136 77 139 132 2 42 -1 49 -32 76 -30 27
-200 91 -242 91 -15 0 -272 85 -317 105 -16 7 -64 28 -105 46 -233 103 -525
275 -635 374 -16 15 -59 49 -95 76 -86 67 -194 164 -368 334 -164 160 -188
176 -239 155z"/>
</g>
</svg>
